<?xml version="1.0" encoding="UTF-8"?>
<svg width="193px" height="32px" viewBox="0 0 193 32" version="1.1" xmlns="http://www.w3.org/2000/svg" xmlns:xlink="http://www.w3.org/1999/xlink">
    <!-- Generator: Sketch 47.1 (45422) - http://www.bohemiancoding.com/sketch -->
    <title>logo-gor</title>
    <desc>Created with Sketch.</desc>
    <defs>
        <polygon id="path-1" points="31.6536587 0.0145454545 0.682486901 0.0145454545 0.682486901 31.9992232 31.6536587 31.9992232"></polygon>
    </defs>
    <g id="Page-1" stroke="none" stroke-width="1" fill="none" fill-rule="evenodd">
        <g id="Index-alternate" transform="translate(-95.000000, -64.000000)">
            <g id="site-header">
                <g id="top" transform="translate(95.000000, 64.000000)">
                    <g id="logo-gor">
                        <g>
                            <path d="M57.3240309,17.5533883 L59.3181796,17.5533883 C59.5074054,17.5533883 60.3865775,18.5081214 60.3865775,18.8052136 L60.3865775,21.0521534 C60.0634381,21.796326 59.0387077,22.6010708 57.5394572,22.6010708 C55.0969889,22.6010708 53.4492689,20.6483388 53.1494188,17.9572029 C53.0009494,16.641921 53.0009494,15.1766509 53.1290407,13.8844442 C53.4929364,10.2760723 55.2687477,9.04732211 57.3880765,9.08770357 C60.0634381,9.15116015 62.3981932,12.8027979 62.3981932,13.5642769 L63.2773654,13.5642769 L63.2773654,8.28295875 L62.4214826,8.28295875 C62.2060563,8.58005092 61.7781149,8.70696408 61.4345973,8.70696408 C60.0023036,8.70696408 58.7592357,8.06951389 57.1755614,8.00605731 C52.5497186,7.8358783 49.4667938,11.2711868 49.4464157,15.8342918 C49.4231263,20.5445007 52.4216273,24 57.431744,24 C59.4462709,24 60.7504733,23.0250762 61.5626886,21.9434299 L63.3850785,23.7259829 L63.5743043,23.7259829 L63.5743043,18.7619477 C63.5743043,18.4648555 64.4767658,17.5303132 64.6659915,17.5303132 L65.3966942,17.5303132 L65.3966942,16.7255684 L57.3240309,16.7255684 L57.3240309,17.5533883 Z" id="Fill-1" fill="#221E1F"></path>
                            <path d="M77.4546618,22.1531632 C77.1829848,22.1531632 76.70472,21.6654828 76.70472,21.3884573 L76.70472,13.6 L72.2956282,13.6 L72.2956282,14.3416204 L72.9804807,14.3416204 C73.2521578,14.3416204 74.0219093,15.236182 74.0219093,15.5305216 L74.0219093,20.2861265 C73.3766764,21.1749168 72.0862105,22.1531632 71.4409775,22.1531632 C70.671226,22.1531632 70.2750303,21.4750277 70.2750303,20.6872364 L70.2750303,13.6 L66.1942149,13.6 L66.1942149,14.3416204 L66.5706008,14.3416204 C66.8394478,14.3416204 67.5922196,15.236182 67.5922196,15.5305216 L67.5922196,21.0075472 C67.5922196,22.4301887 68.6930776,24 70.2325808,24 C71.4409775,24 73.1474489,22.790899 74.2086873,21.5587125 L74.2511368,21.9829079 C74.3530157,23.0852386 75.2076664,24 76.3736137,23.9798002 C77.352783,23.9567148 78.6206091,22.4071032 78.9545455,22.0031077 L78.4140214,21.4317425 C78.1847939,21.6423973 77.6838893,22.1531632 77.4546618,22.1531632" id="Fill-3" fill="#221E1F"></path>
                            <path d="M83.0384013,22.0177778 L83.0384013,7.2 C83.0384013,7.2 81.1986036,7.98518519 79.0947991,8.46222222 L79.0947991,9.13777778 L79.438558,9.13777778 C79.6805643,9.13777778 80.4890852,9.87851852 80.4890852,10.2074074 L80.4890852,22.0177778 C80.4890852,22.3644444 79.6613138,23.2148148 79.3780564,23.2148148 L78.9545455,23.2148148 L78.9545455,24 L84.5371901,24 L84.5371901,23.2148148 L84.0916785,23.2148148 C83.8496723,23.2148148 83.0384013,22.3644444 83.0384013,22.0177778" id="Fill-5" fill="#221E1F"></path>
                            <path d="M89.322314,12 C90.1955769,12 90.9173554,11.2664151 90.9173554,10.4030189 C90.9173554,9.53660377 90.1955769,8.8 89.322314,8.8 C88.4252889,8.8 87.7272727,9.53660377 87.7272727,10.4030189 C87.7272727,11.2664151 88.4252889,12 89.322314,12" id="Fill-7" fill="#221E1F"></path>
                            <path d="M90.2415997,21.2539525 L90.2415997,12.8 C90.2415997,12.8 88.3534353,13.6652294 86.1943235,14.1510227 L86.1943235,14.8294085 L86.5894551,14.8294085 C86.8378235,14.8294085 87.6280866,15.5250415 87.6280866,15.8642344 L87.6280866,21.2539525 C87.6280866,21.6362631 86.8378235,22.4382532 86.5668761,22.4382532 L86.1322314,22.4382532 L86.1322314,23.2 L91.714876,23.2 L91.714876,22.4382532 L91.2407181,22.4382532 C90.9923497,22.4382532 90.2415997,21.613267 90.2415997,21.2539525" id="Fill-9" fill="#221E1F"></path>
                            <path d="M99.4410272,20.6010858 C99.0549077,21.339848 98.2797435,22.2792617 97.4607021,22.2792617 C96.5773075,22.2792617 95.8284696,21.5861021 95.8284696,20.6679696 C95.8284696,19.6434311 96.4924782,19.0597177 97.5045793,18.767861 L99.4410272,18.2115092 L99.4410272,20.6010858 Z M102.968755,22.1211726 C102.67039,22.1211726 102.152639,21.6529859 102.152639,21.2972856 L102.152639,16.1745928 C102.152639,14.0525516 100.236667,12.8 97.7649175,12.8 C95.7407152,12.8 93.3099174,13.9400651 93.3099174,16.5789359 L93.7633153,17.0684039 C94.8368445,17.2477742 95.6763619,16.6427796 95.5681315,15.6820847 C95.4628262,14.7213898 96.1502359,14.0282302 97.1828131,14.0282302 C98.665863,14.0282302 99.4205512,14.90076 99.4205512,16.0165038 L99.4205512,17.314658 L96.9254001,17.8527687 C95.5037782,18.1628664 93.5673304,18.9016287 93.5673304,21.0267101 C93.5673304,22.7474484 94.8368445,24 96.5363554,24 C97.8058696,24 99.139737,22.7018458 99.634087,22.0117264 L99.7452426,22.0117264 C99.9792544,23.0636265 100.602311,23.9787188 101.743119,23.9574376 C102.775696,23.9361564 104.173916,22.3218241 104.475207,21.8323561 L103.916503,21.251683 C103.723444,21.5192182 103.161815,22.1211726 102.968755,22.1211726 L102.968755,22.1211726 Z" id="Fill-11" fill="#221E1F"></path>
                            <path d="M115.177567,21.2769486 L115.177567,15.8412383 C115.177567,14.4269762 113.997328,12.8402432 112.353015,12.8402432 C110.877716,12.8402432 109.339395,14.470094 108.454216,15.4416805 L107.907066,12.8 C107.907066,12.8 106.28567,13.60199 104.475207,14.1510227 L104.475207,14.7862908 L104.873394,14.7862908 C105.085379,14.7862908 105.927588,15.5049198 105.927588,15.800995 L105.927588,21.2769486 C105.927588,21.6362631 105.211424,22.4382532 104.936416,22.4382532 L104.578334,22.4382532 L104.578334,23.2 L109.972484,23.2 L109.972484,22.4382532 L109.488357,22.4382532 C109.236267,22.4382532 108.603178,21.613267 108.603178,21.2769486 L108.603178,16.6489773 C108.603178,16.2896628 110.330567,14.6598121 111.318873,14.6598121 C111.908993,14.6598121 112.52203,15.4416805 112.52203,16.0970702 L112.52203,21.2769486 C112.52203,21.613267 111.825918,22.4382532 111.573828,22.4382532 L111.086836,22.4382532 L111.086836,23.2 L116.438017,23.2 L116.438017,22.4382532 L116.122904,22.4382532 C115.847897,22.4382532 115.177567,21.5931454 115.177567,21.2769486" id="Fill-13" fill="#221E1F"></path>
                            <path d="M120.42562,12 C121.298883,12 122.020661,11.2664151 122.020661,10.4030189 C122.020661,9.53660377 121.298883,8.8 120.42562,8.8 C119.528595,8.8 118.830579,9.53660377 118.830579,10.4030189 C118.830579,11.2664151 119.528595,12 120.42562,12" id="Fill-15" fill="#221E1F"></path>
                            <path d="M121.344906,21.2539525 L121.344906,12.8 C121.344906,12.8 119.456741,13.6652294 117.297629,14.1510227 L117.297629,14.8294085 L117.692761,14.8294085 C117.941129,14.8294085 118.731392,15.5250415 118.731392,15.8642344 L118.731392,21.2539525 C118.731392,21.6362631 117.941129,22.4382532 117.670182,22.4382532 L117.235537,22.4382532 L117.235537,23.2 L122.818182,23.2 L122.818182,22.4382532 L122.344024,22.4382532 C122.095656,22.4382532 121.344906,21.613267 121.344906,21.2539525" id="Fill-17" fill="#221E1F"></path>
                            <path d="M137.074659,17.5533883 L139.068444,17.5533883 C139.260546,17.5533883 140.136647,18.5081214 140.136647,18.8052136 L140.136647,21.0521534 C139.816477,21.796326 138.789023,22.6010708 137.290046,22.6010708 C134.848024,22.6010708 133.200605,20.6483388 132.900809,17.9572029 C132.752367,16.641921 132.752367,15.1766509 132.880435,13.8844442 C133.244264,10.2760723 135.019751,9.04732211 137.138693,9.08770357 C139.816477,9.15116015 142.147896,12.8027979 142.147896,13.5642769 L143.029818,13.5642769 L143.029818,8.28295875 L142.171181,8.28295875 C141.955794,8.58005092 141.527931,8.70696408 141.187386,8.70696408 C139.755354,8.70696408 138.509602,8.06951389 136.926217,8.00605731 C132.301218,7.8358783 129.218856,11.2711868 129.198482,15.8342918 C129.175197,20.5445007 132.173151,24 137.182353,24 C139.196512,24 140.500477,23.0250762 141.312544,21.9434299 L143.137512,23.7259829 L143.323792,23.7259829 L143.323792,18.7619477 C143.323792,18.4648555 144.229,17.5303132 144.421102,17.5303132 L145.14876,17.5303132 L145.14876,16.7255684 L137.074659,16.7255684 L137.074659,17.5533883 Z" id="Fill-19" fill="#221E1F"></path>
                            <path d="M153.102752,12.8431058 C151.938817,12.8431058 151.284824,13.5845261 150.734548,14.3633048 L149.585018,16.0760431 L149.501468,16.0760431 L148.781212,12.8 C148.781212,12.8 147.640325,13.6448743 145.946281,14.236861 L145.946281,14.8719536 L146.343863,14.8719536 C146.680943,14.8719536 147.447296,15.5673943 147.447296,15.9294833 L147.447296,21.2113844 C147.447296,21.5504836 146.64349,22.4384637 146.389959,22.4384637 L145.983734,22.4384637 L145.983734,23.2 L152.405544,23.2 L152.405544,22.4384637 L151.261776,22.4384637 C150.988078,22.4384637 150.181391,21.5504836 150.181391,21.2113844 L150.181391,16.8778116 C150.181391,16.6076817 151.348207,14.7656259 151.662239,14.7656259 C151.791885,15.3145068 152.235563,15.8432716 152.849222,15.9725891 L153.46288,15.9725891 C154.266687,15.7599337 154.719008,15.1248411 154.719008,14.3862946 C154.719008,13.5385466 154.059253,12.8431058 153.102752,12.8431058" id="Fill-21" fill="#221E1F"></path>
                            <path d="M163.185146,20.1496216 C162.98334,21.7963243 162.075215,22.7528649 160.777492,22.7528649 C159.434923,22.7528649 158.487558,21.6177297 158.280146,19.9922162 C158.154018,18.9902703 158.154018,17.5221622 158.280146,16.5444324 C158.487558,14.8947027 159.376063,13.9139459 160.673786,13.9139459 C162.030369,13.9139459 162.98334,15.0732973 163.185146,16.6957838 C163.311275,17.6977297 163.311275,19.1688649 163.185146,20.1496216 M160.710223,12.8 C158.154018,12.8 155.516529,15.0490811 155.516529,18.4363243 C155.516529,21.9537297 158.1372,24 160.732646,24 C163.41498,24 165.884298,21.8205405 165.884298,18.3909189 C165.884298,15.0067027 163.431798,12.8 160.710223,12.8" id="Fill-23" fill="#221E1F"></path>
                            <path d="M178.742284,22.1531632 C178.470546,22.1531632 177.989345,21.6654828 177.989345,21.3884573 L177.989345,13.6 L173.579275,13.6 L173.579275,14.3416204 L174.264279,14.3416204 C174.536017,14.3416204 175.30877,15.236182 175.30877,15.5305216 L175.30877,20.2861265 C174.663394,21.1749168 173.369811,22.1531632 172.727265,22.1531632 C171.954512,22.1531632 171.561059,21.4750277 171.561059,20.6872364 L171.561059,13.6 L167.479339,13.6 L167.479339,14.3416204 L167.855808,14.3416204 C168.121884,14.3416204 168.874823,15.236182 168.874823,15.5305216 L168.874823,21.0075472 C168.874823,22.4301887 169.978756,24 171.51577,24 C172.727265,24 174.431285,22.790899 175.49842,21.5587125 L175.535217,21.9829079 C175.63995,23.0852386 176.491959,24 177.658165,23.9798002 C178.637552,23.9567148 179.90849,22.4071032 180.239669,22.0031077 L179.699025,21.4317425 C179.472578,21.6423973 178.968731,22.1531632 178.742284,22.1531632" id="Fill-25" fill="#221E1F"></path>
                            <path d="M190.055353,19.5704879 C189.908552,21.206508 188.875191,22.4535651 187.602919,22.4535651 C186.203996,22.4535651 185.40091,21.3609056 185.294408,19.7634848 C185.231082,18.8905449 185.231082,17.777101 185.294408,16.8833768 C185.40091,15.3097095 186.434271,14.0002996 187.726692,14.0002996 C189.128494,14.0002996 189.908552,15.0692056 190.055353,16.6636572 C190.138827,17.5365972 190.138827,18.6737945 190.055353,19.5704879 M188.049078,12.8007494 C186.503354,12.8215337 185.377882,13.7152579 184.871276,14.3714475 L184.617973,13.0412533 L181.03719,13.0412533 L181.03719,13.9141932 L181.48047,13.9141932 C181.756801,13.9141932 182.545494,14.7425955 182.545494,15.1582811 L182.545494,26.010647 C182.545494,26.4263327 181.779828,27.2131664 181.503498,27.2131664 L181.143692,27.2131664 L181.143692,28 L187.260384,28 L187.260384,27.2131664 L186.310498,27.2131664 C186.057195,27.2131664 185.317435,26.4263327 185.317435,26.010647 L185.317435,22.7148533 C185.867218,23.2582139 186.817104,23.7184373 187.790018,23.7392216 C190.37486,23.7837594 193,21.7736221 193,18.3026465 C193,14.6980577 190.65119,12.7562117 188.049078,12.8007494" id="Fill-27" fill="#221E1F"></path>
                            <g id="Group">
                                <path d="M7.69222387,19.6279002 C7.5397612,19.4570976 7.32572707,19.3297195 7.10582898,19.2139211 C6.95629829,18.9620598 6.76278797,18.7536228 6.45786263,18.6928286 C6.24089653,18.4351774 6.0034066,18.1891059 5.73659692,17.9546143 C4.37322881,16.7705764 3.40274527,15.1928241 2.40294199,13.6816559 C2.22409155,13.117139 2.10094863,12.5352524 2.03058124,11.9504708 C2.09801665,11.872307 2.13906429,11.7680885 2.13320035,11.6320254 C1.91037029,8.10886123 4.04777965,4.66965081 7.17912834,3.04847418 C7.88866616,2.68081448 8.6744353,2.70397415 9.42208878,2.46948253 C10.3867084,2.16840687 11.1431578,1.9165455 12.1898726,2.11340266 C13.0870568,2.2842052 13.987173,2.56501615 14.8403775,2.95294056 C15.127711,3.11216327 15.4091806,3.27717589 15.6877181,3.44218851 C15.708242,3.48271792 15.7375617,3.52324734 15.7756774,3.55798684 C16.0923306,3.85616754 16.3679362,4.18619278 16.7578888,4.39462978 C16.8253242,4.43226423 16.8986236,4.46410878 16.968991,4.49305836 C17.2915082,4.86361302 17.7313043,4.93019706 18.1212569,4.80571385 C18.7692233,4.84913822 19.3820059,4.45252894 19.0448289,3.72589442 C19.0360329,3.70562971 19.024305,3.68825996 19.0125772,3.67089021 C19.0125772,3.3871843 18.8923662,3.08321368 18.5991688,2.79950777 C18.2795835,2.48685228 17.8104676,2.36815899 17.4117191,2.1944615 C16.8135963,1.93102029 16.4148478,1.48519672 15.8636366,1.16964627 C15.7874053,1.12332694 15.7141059,1.0914824 15.6378746,1.06253281 C15.6320106,1.0567429 15.6261467,1.04805802 15.6173508,1.04226811 C13.1222405,-0.616542978 8.90606128,-0.0809756993 6.34351563,1.15806644 C5.05051491,1.78627238 3.76924208,2.85161702 2.75477893,3.83879779 C2.27686709,4.30199111 1.74617972,4.91572226 1.37381897,5.45128954 C1.10700929,5.83052908 1.07475758,6.27924761 0.995594266,6.72217622 C0.391607533,8.29413856 -0.147875763,9.92689502 0.0368386266,11.6320254 C0.221553016,13.328471 1.03077796,14.8685888 1.85466277,16.3421225 C2.61697613,17.7056479 3.64903113,18.8028371 4.68988205,19.9550304 C5.2352293,20.5600767 5.86853577,21.512518 6.68362466,21.7933289 C6.82435944,21.9757113 6.98268606,22.1407239 7.17326439,22.2565223 C7.23190388,22.2941567 7.2993393,22.3115265 7.36970668,22.3173164 C7.86814234,22.5836525 8.46626512,22.1638836 8.56595225,21.6659508 C8.63338766,21.3359255 8.51610868,21.0174801 8.34312219,20.7395641 C8.12908806,20.3892742 7.96782947,19.9318708 7.69222387,19.6279002" id="Fill-29" fill="#DDA82E"></path>
                                <path d="M8.08244131,15.90538 C8.00287001,15.6562378 7.81720364,15.4456534 7.59027809,15.3270142 C7.46944759,15.1727833 7.34272293,15.0304164 7.20420993,14.8850834 C6.16094178,13.7847053 5.30923416,12.7851706 5.23850412,11.1627803 C5.09704403,7.93282959 8.44493279,5.12701385 11.4804305,5.57191064 C12.6150583,5.73800544 13.0482798,5.89816828 13.9913471,6.56254749 C14.265426,6.75237011 14.5159282,6.97778449 14.8430547,7.07862776 C15.3558475,7.2387906 15.9629471,7.21506277 16.3725919,6.82058762 C17.6604681,5.57487662 15.2821704,4.53381813 14.5188753,4.08892134 C12.9952323,3.19912777 10.4460036,2.92625774 8.77795341,3.50462356 C7.23957495,4.03553373 5.62162519,4.75033457 4.78760008,6.23628984 C4.20997139,7.26845039 3.47614718,8.39255627 3.25511579,9.57598173 C3.07829068,10.5369588 3.30226916,11.7797038 3.44962342,12.7080551 C3.61760727,13.7817394 4.09208798,14.4016289 4.71097587,15.3151503 C5.1825095,16.0062233 5.55384223,16.7180582 6.19335971,17.1451591 C6.20220097,17.159989 6.21104222,17.1718529 6.21988348,17.1866828 C6.7326763,17.8303001 7.35451127,18.7289917 8.30052561,18.2781629 C9.24064578,17.8273342 8.57460453,16.5667933 8.1443301,15.9676656 C8.12664759,15.9439378 8.10307091,15.9261419 8.08244131,15.90538" id="Fill-31" fill="#DDA82E"></path>
                                <path d="M9.25841591,13.5757072 C9.24194995,13.3403323 9.1047336,13.1894509 8.94281831,13.1290984 C8.88244312,12.9872699 8.80285764,12.8605296 8.70955052,12.7428421 C8.46530543,11.9582591 8.22106033,11.125394 8.62996504,10.4162516 C9.24194995,9.36309976 10.6552783,9.07038993 11.6240257,9.61658044 C12.2360106,9.96360755 12.9660016,10.6244679 13.4435145,9.6014923 C13.800277,8.83501502 13.2569002,8.07155536 12.7107792,7.64606994 C12.3046188,7.33223672 11.945112,7.20851401 11.4429001,7.22058451 C10.8364039,7.23265502 10.1119016,7.16023197 9.49991668,7.23265502 C7.29896648,7.50122384 5.94326898,10.3770225 6.50860033,12.5466964 C6.72814648,13.3886143 7.28524485,14.9758862 8.16068514,15.1750496 C9.04435841,15.3772306 9.31330245,14.305973 9.25841591,13.5757072" id="Fill-33" fill="#DDA82E"></path>
                                <path d="M31.6500471,13.8262365 C32.2719647,14.4433075 33.0698967,13.9819734 33.4893977,13.4148558 C34.9855202,11.4108442 34.2931968,8.67810122 32.242629,7.40575958 C31.4270955,6.90034904 29.8341651,6.29503177 28.8660858,6.41550754 C27.5841142,6.56830607 26.5690978,7.99344625 25.7447636,8.83089976 C23.3157648,11.2933069 20.7312865,13.6675611 18.4753685,16.2945205 C16.820833,18.2191943 14.6587893,20.6052022 16.9352424,22.8354731 C17.8270487,23.7111263 19.1295554,24.7513317 20.4203277,24.7983466 C21.7081665,24.8483 22.8287916,23.7552028 23.7734022,23.0294097 C24.5009285,22.468169 26.6512378,21.1781967 26.498692,20.0498383 C26.457622,19.7648103 26.2728069,19.6472729 26.0879917,19.4474595 C25.4426056,18.7569276 24.4275891,18.1780563 23.5915207,17.6226924 C23.5563178,17.5433547 23.5035135,17.4640169 23.4155063,17.4052483 C22.8845295,17.0232519 22.2978148,17.1407893 22.0513946,17.7784293 C21.7081665,18.6628978 22.6909136,19.1859389 23.1280161,19.8059483 C23.1485511,19.8529633 23.1720197,19.8911629 23.204289,19.9293625 C23.2981633,20.0939148 23.3451005,20.2672824 23.3157648,20.4582805 C23.1866875,21.2575344 21.4382777,22.3535701 20.810493,22.4975533 C18.5281728,23.0264713 17.777178,20.4964802 18.9300724,18.8774034 C19.9069523,17.5022166 21.2446619,16.2063675 22.4092906,14.9839792 C23.4771113,13.8614977 24.7268136,12.921199 25.8151694,11.8016559 C26.3989505,11.1934002 27.015001,10.6174672 27.6633207,10.0826724 C28.3585776,9.50380099 28.6900714,9.22464982 29.6082799,9.14237369 C30.8198458,9.03659009 31.7497886,9.29517223 31.9404709,10.6527284 C32.063681,11.5225047 30.7963772,12.9770292 31.6500471,13.8262365" id="Fill-35" fill="#DDA82E"></path>
                                <path d="M34.6229436,16.362507 C35.2840748,15.9068718 35.5559687,14.7327351 35.8507588,14.0492824 C36.3115473,12.983213 36.7809219,12.0661013 36.6693023,10.8744402 C36.4632354,8.69556956 35.7734837,6.67149809 34.0991902,5.23449497 C32.5107579,3.87635177 30.7849477,2.95631928 28.6699,3.2571553 C26.108374,3.61932682 24.2137034,5.34840375 22.3791356,7.0716392 C21.3173187,8.07053162 20.4873271,9.20377799 19.5457158,10.3107377 C18.5726222,11.4585878 17.2961523,12.3289677 16.1999909,13.3570675 C14.3883194,15.0598578 13.0259883,16.9612583 12.794163,19.5373492 C12.5966823,21.6840917 13.2749858,23.7256876 14.5342835,25.3963498 C14.4827668,25.5891185 14.5199733,25.8140153 14.714592,25.962973 C16.6006765,27.4087383 18.3322108,28.2236242 20.7306005,27.9461541 C22.8857167,27.6949706 24.185083,27.0407253 25.5932068,25.3700631 C26.4947494,24.2981523 27.4707051,23.3284672 28.601211,22.5048191 C29.173619,22.0842328 30.1266784,21.6432014 30.306987,20.8516814 C30.452951,20.2266434 30.0665756,19.8206608 29.7059585,19.3796294 C28.7099685,18.1616816 27.6223933,16.9933864 26.5720245,15.8221704 C25.9738581,15.1591629 24.3682536,13.719239 23.8130178,15.3227242 C23.6298472,15.8572193 23.8759827,16.4033973 24.2051173,16.8064591 C25.1667628,17.9835166 26.5262319,18.4829628 26.8811249,20.0893687 C27.1243983,21.1992492 26.7208506,21.5205304 25.9452377,22.3354163 C25.610379,22.6888256 25.252624,23.018869 24.894869,23.3489124 C23.6756398,24.4763173 22.3447912,25.6562955 20.6189809,25.7234724 C17.5165294,25.8490642 14.7718328,23.5913337 14.7002818,20.3902047 C14.6602132,18.6085545 15.6018245,17.7177294 16.6064006,16.4530498 C17.2360494,15.6586091 17.6539073,14.7590218 18.3636933,14.0229958 C20.3442251,11.9697169 22.3877218,9.97193209 24.402598,7.9537021 C25.3298991,7.0249074 26.3144409,5.95007579 27.5966349,5.55285541 C29.0763097,5.09429954 31.1455647,5.68720937 32.4621032,6.45828421 C33.8788131,7.29653603 34.5485305,8.92046639 34.5342203,10.5443968 C34.5199101,12.2676322 33.658436,13.473897 33.157579,15.0335711 C32.8427546,16.0120184 33.6183675,17.0576426 34.6229436,16.362507" id="Fill-37" fill="#DDA82E"></path>
                                <g id="Group-41" transform="translate(8.772727, 0.000000)">
                                    <mask id="mask-2" fill="white">
                                        <use xlink:href="#path-1"></use>
                                    </mask>
                                    <g id="Clip-40"></g>
                                    <path d="M24.3153899,20.6658909 C24.3211901,20.6717091 24.3211901,20.6804364 24.3153899,20.6862545 L24.3008896,20.7008 C24.2950894,20.6804364 24.2921893,20.6571636 24.2863892,20.6368 L24.3153899,20.6658909 Z M31.6380796,10.3473455 C31.3103711,4.41570909 25.1709121,-0.634472727 19.2808595,0.0811636364 C16.3923847,0.433163636 13.8548189,2.08261818 11.9175687,4.20043636 C9.64100977,6.68770909 7.19334636,8.99461818 4.91098723,11.4731636 C0.926283997,15.7960727 -0.909463561,21.7422545 2.38502179,27.0920727 C5.57800451,32.2702545 13.3792066,33.7073455 18.0454275,29.6724364 C19.4983651,28.4157091 20.8701007,27.0600727 22.2186356,25.6957091 C23.4975687,24.4011636 25.1187107,23.0775273 26.1482374,21.5735273 C27.8186807,19.1386182 23.6802735,17.3291636 22.2592367,16.1218909 C21.7488234,15.6855273 18.3441352,10.5713455 17.4741127,13.4338909 C17.2334065,14.2280727 17.8888234,14.8564364 18.4253373,15.3393455 C20.0116784,16.7648 21.5429181,18.0389818 22.7696499,19.8164364 C24.1761863,21.8557091 21.7372231,22.6644364 20.5945935,23.8484364 C19.2257581,25.2680727 18.2339324,26.7138909 16.5344884,27.8077091 C14.7393418,28.9597091 13.086299,29.5357091 10.9373434,29.5124364 C9.67291059,29.5008 8.14167092,29.1168 6.82213674,28.4651636 C6.27692261,28.1364364 5.75490909,27.7495273 5.27349662,27.2898909 C4.60937941,26.6644364 4.06706536,25.9546182 3.63495417,25.2040727 C2.99693764,23.7786182 2.6170278,22.0448 2.6518287,20.7880727 C2.68082945,19.7466182 3.20574305,18.8360727 3.47835011,17.8528 C3.8408595,16.5408 3.98876334,15.6709818 4.98058903,14.5946182 C7.80526221,11.5197091 10.8938422,8.45061818 14.0694245,5.73643636 C15.8442705,4.2208 18.028027,2.24552727 20.4901908,2.62661818 C22.154834,2.88261818 24.6082975,3.30152727 26.2323396,4.18007273 C26.4846461,4.36916364 26.7253524,4.57570909 26.9602585,4.7968 C27.4967724,5.30589091 27.9549842,5.86734545 28.3406942,6.4608 C29.1005139,7.97643636 29.4572231,9.87607273 29.5007243,11.2957091 C29.5732261,13.7277091 28.7322044,16.0055273 27.0124598,17.7277091 C26.7920541,17.9488 26.8529557,18.2338909 27.0269602,18.4084364 C27.1400631,19.1269818 28.0158858,19.6651636 28.8540075,18.9524364 C29.7385304,18.1989818 30.3243456,16.5611636 30.7419564,15.5022545 C31.382873,13.8673455 31.7337821,12.1102545 31.6380796,10.3473455 L31.6380796,10.3473455 Z" id="Fill-39" fill="#DDA82E" mask="url(#mask-2)"></path>
                                </g>
                            </g>
                        </g>
                    </g>
                </g>
            </g>
        </g>
    </g>
</svg>