<?xml version="1.0" encoding="UTF-8"?>
<svg width="94px" height="94px" viewBox="0 0 94 94" version="1.1" xmlns="http://www.w3.org/2000/svg" xmlns:xlink="http://www.w3.org/1999/xlink">
    <!-- Generator: Sketch 47.1 (45422) - http://www.bohemiancoding.com/sketch -->
    <title>Page 1</title>
    <desc>Created with Sketch.</desc>
    <defs></defs>
    <g id="Page-1" stroke="none" stroke-width="1" fill="none" fill-rule="evenodd">
        <g id="Index-alternate-tab" transform="translate(-431.000000, -963.000000)">
            <g id="Наши-проекты" transform="translate(-1.000000, 625.000000)">
                <g id="project-logo" transform="translate(407.000000, 33.000000)">
                    <g id="Page-1" transform="translate(25.000000, 305.000000)">
                        <path d="M61.1103329,17.3743678 C60.8173643,16.1737693 59.6066548,15.4380567 58.4061767,15.7309459 C57.2056986,16.0238352 56.4698117,17.2345643 56.7626702,18.4350502 C57.0557489,19.6356486 58.2663483,20.3714739 59.4669364,20.0785846 C60.6675246,19.7856953 61.4031915,18.5749662 61.1103329,17.3743678" id="Fill-1" fill="#F05A28"></path>
                        <path d="M25.3007726,25.5807798 C25.0079095,24.3801628 23.7971816,23.6443261 22.5966852,23.9373325 C21.3960787,24.2302263 20.6602906,25.4408617 20.9531536,26.6414787 C21.2461267,27.8420958 22.4567446,28.5778199 23.657351,28.2849261 C24.8579575,27.9920322 25.5937456,26.7813969 25.3007726,25.5807798" id="Fill-3" fill="#F05A28"></path>
                        <path d="M37.4094373,8.98453434 C36.8091389,9.13102458 36.4412196,9.73634969 36.5877083,10.3366384 C36.7341122,10.9368403 37.3395029,11.3047591 37.9398013,11.1583557 C38.5400148,11.0118655 38.9079341,10.4065404 38.7615302,9.80625167 C38.6150415,9.20596298 38.0097356,8.8380441 37.4094373,8.98453434" id="Fill-5" fill="#F05A28"></path>
                        <path d="M33.6474908,77.4189784 C33.9658121,78.6127843 35.1918862,79.3219573 36.3859747,79.0029794 C37.5799536,78.6838905 38.2898782,77.4574202 37.9715568,76.2635032 C37.6532355,75.0695862 36.4271615,74.3605244 35.233073,74.6796133 C34.039094,74.9985912 33.3291694,76.2250614 33.6474908,77.4189784" id="Fill-7" fill="#F05A28"></path>
                        <path d="M69.4570141,67.7205344 C69.7753355,68.9144414 71.0015192,69.6236084 72.1954983,69.3045221 C73.3894774,68.9854358 74.099402,67.7589758 73.7810806,66.5651799 C73.4627592,65.3712729 72.2366851,64.6621059 71.042706,64.9811922 C69.8486174,65.3002784 69.1386927,66.5267385 69.4570141,67.7205344" id="Fill-9" fill="#F05A28"></path>
                        <path d="M56.6135826,83.5173496 C57.2106024,83.3578435 57.5656031,82.7445891 57.4063978,82.1477054 C57.2472771,81.550736 56.6342016,81.1961541 56.0372663,81.3556603 C55.4401621,81.5152521 55.0852459,82.1285064 55.2443666,82.7253901 C55.4035719,83.3223596 56.0165629,83.6768557 56.6135826,83.5173496" id="Fill-11" fill="#F05A28"></path>
                        <path d="M12.3424493,67.7169379 L11.5312308,67.961746 L11.9370215,66.4252407 L12.3424493,67.7169379 Z M13.4060509,68.6912144 L12.2973614,65.1473745 C12.2324966,64.9567376 12.0725572,64.8668364 11.9179703,64.9197398 C11.769008,64.9557003 11.63066,65.1147565 11.5726899,65.3183022 L10.4651798,69.52891 C10.4290732,69.6770166 10.4405039,69.8271979 10.4964782,69.9421102 C10.5447412,70.0407711 10.6218533,70.1052004 10.7184701,70.1244484 C10.7314431,70.1259468 10.744416,70.1269841 10.757389,70.1269841 C10.7866008,70.1269841 10.8162663,70.1223738 10.8486533,70.1124616 C10.9964363,70.0677415 11.127436,69.9139872 11.1835009,69.7171264 L11.4106639,68.8579928 L12.4848797,68.5343481 L12.6962574,69.207801 C12.7535017,69.3948649 12.9077258,69.4905291 13.0737434,69.4421207 C13.1021388,69.4333611 13.1560265,69.4124994 13.1986649,69.3766541 C13.3824637,69.2301611 13.4742723,68.9308359 13.4060509,68.6912144 L13.4060509,68.6912144 Z" id="Fill-13" fill="#231F20"></path>
                        <path d="M20.0017217,65.9804543 C19.8823914,65.7620249 19.6968176,65.6124676 19.4329477,65.5223315 C19.2403815,65.4596024 19.0012609,65.4356213 18.6913885,65.4514512 C18.4403072,65.4696438 18.2229918,65.4329042 18.1065136,65.362142 C18.0423862,65.3226854 18.0176369,65.2859458 18.0098165,65.2715334 C18.0019961,65.2577118 17.9941757,65.2385741 17.9941757,65.1736005 C17.9941757,65.0568843 18.0502066,64.9226843 18.1559202,64.7868305 C18.2913514,64.6127013 18.4802374,64.4795645 18.6749196,64.4204976 C18.947346,64.3346143 19.1671456,64.4438881 19.4255873,64.5946268 C19.5992004,64.6942136 19.8206561,64.5721814 19.9202054,64.3277626 C19.9782605,64.1994693 19.9939013,64.0519202 19.9634477,63.9224455 C19.9371343,63.8126992 19.8803673,63.7264616 19.7885464,63.6705843 C19.5309328,63.527288 19.1432244,63.3100399 18.6263411,63.4676304 C18.2810468,63.5731239 17.9513934,63.8073832 17.697828,64.1279983 C17.4196974,64.4860618 17.2599769,64.9248108 17.2599769,65.3331993 C17.2599769,65.5601343 17.3073594,65.7663959 17.3966961,65.9297749 C17.5139103,66.1417069 17.6929518,66.2877203 17.9292203,66.3643891 C18.1123099,66.4240467 18.3357897,66.4454289 18.624685,66.4282995 C18.9033677,66.4097525 19.1399122,66.446374 19.2728592,66.5215071 C19.3403908,66.5603731 19.3671642,66.6014837 19.3815169,66.6295995 C19.3996419,66.6642127 19.4091184,66.6930374 19.4091184,66.7542307 C19.4091184,66.8954005 19.344439,67.052991 19.2217965,67.2096364 C19.0724726,67.4003044 18.8588373,67.5487985 18.6353575,67.6170799 C18.3086483,67.7224552 17.9522215,67.5701808 17.7452105,67.4094007 C17.583006,67.282525 17.3546499,67.3737243 17.2320074,67.61011 L17.2311794,67.6127089 C17.166592,67.7421836 17.1439588,67.8945762 17.1682481,68.03043 C17.1879371,68.138995 17.2365157,68.2284223 17.3081875,68.283827 C17.5410518,68.4570111 17.8789856,68.6349206 18.284359,68.6349206 C18.4115097,68.6349206 18.5456528,68.6172006 18.6851322,68.5763263 C19.0560038,68.4627997 19.4074623,68.2120017 19.6745524,67.870595 C19.9720961,67.4956383 20.1428571,67.0307819 20.1428571,66.5949863 C20.1428571,66.3643891 20.0927145,66.1459598 20.0017217,65.9804543" id="Fill-15" fill="#231F20"></path>
                        <path d="M24.5025217,62.7473755 C24.4260488,62.6741562 24.3237009,62.6488354 24.2202897,62.6793258 C24.0225058,62.7350316 23.8730159,62.9609143 23.8730159,63.2049437 L23.8730159,66.7566093 C23.8730159,66.8850069 23.9143095,66.9949414 23.989276,67.0658397 C24.0427095,67.1166923 24.1085489,67.1428571 24.1798822,67.1428571 C24.2079725,67.1428571 24.2373034,67.139059 24.2670773,67.1305132 C24.4645068,67.0743855 24.6190476,66.8427 24.6190476,66.6034184 L24.6190476,63.0517528 C24.6190476,62.9266258 24.5778426,62.8186958 24.5025217,62.7473755" id="Fill-17" fill="#231F20"></path>
                        <path d="M30.2472435,63.2407827 L29.4360218,63.4854837 L29.8418141,61.9489274 L30.2472435,63.2407827 Z M31.3108494,64.2150915 L30.2021555,60.671134 C30.1368368,60.4803755 29.9781669,60.3909323 29.8227628,60.4433765 C29.6738,60.4793382 29.5354514,60.6383996 29.4773903,60.8419521 L28.3699665,65.0528149 C28.3338598,65.2008112 28.3451999,65.3509975 28.4012651,65.4659136 C28.4495283,65.5645778 28.5266406,65.6290092 28.6232579,65.6482579 C28.6362309,65.6497563 28.6492039,65.6507937 28.6621769,65.6507937 C28.6913889,65.6507937 28.7209637,65.6461832 28.7534416,65.6362707 C28.9012251,65.5916643 29.0322254,65.4377897 29.0882906,65.2409224 L29.3154544,64.3818754 L30.3896746,64.0581048 L30.6010531,64.73158 C30.6579347,64.9186501 30.8104357,65.0158159 30.9785406,64.9660227 C31.0069361,64.9571476 31.060824,64.9362852 31.1034626,64.9004387 C31.2872621,64.7539408 31.3789804,64.4546057 31.3108494,64.2150915 L31.3108494,64.2150915 Z" id="Fill-19" fill="#231F20"></path>
                        <path d="M38.6693077,59.018938 C38.5885556,58.9433771 38.4811383,58.9195506 38.3732482,58.948341 C38.1719353,59.0040464 38.0082563,59.2467236 38.0082563,59.4899523 L38.0082563,61.7347161 L36.5138698,59.6555243 C36.4597829,59.5784192 36.3806383,59.5316486 36.2914706,59.5252508 C36.1784744,59.5157643 36.0558334,59.5720213 35.9572099,59.6803436 C35.859532,59.79374 35.8032703,59.9543482 35.8100784,60.0980792 L35.8100784,63.7553345 C35.8100784,63.885608 35.8557497,64.0030858 35.9348943,64.0769921 C35.9927635,64.1308223 36.063398,64.1587302 36.1396113,64.1587302 C36.1692078,64.1587302 36.1996553,64.1542075 36.2301028,64.1458241 C36.4317939,64.0901187 36.5959457,63.8443529 36.5959457,63.5977047 L36.5959457,61.3338576 L38.0631942,63.378854 C38.0788908,63.4127185 38.1016791,63.4335666 38.1080145,63.4385305 C38.1892393,63.5330643 38.3072471,63.5723339 38.4227018,63.5385797 C38.6274187,63.4823227 38.7936508,63.2356744 38.7936508,62.9889159 L38.7936508,59.3323224 C38.7936508,59.2064612 38.7483578,59.092072 38.6693077,59.018938" id="Fill-21" fill="#231F20"></path>
                        <path d="M49.5281147,58.3061801 L50.625855,56.6997929 C50.7720115,56.4776166 50.7634643,56.1791496 50.6071462,56.03524 C50.4443703,55.8851832 50.1971674,55.9445692 50.0451229,56.1678432 L48.5405378,58.3838979 L48.5405378,56.9507292 C48.5405378,56.8225168 48.4940982,56.7062694 48.41347,56.6320643 C48.3327468,56.5572005 48.2286614,56.532063 48.1182131,56.56225 C47.9129863,56.6181234 47.7460317,56.8635711 47.7460317,57.1091286 L47.7460317,60.7732808 C47.7460317,60.9029202 47.7919965,61.0197165 47.8713901,61.0934825 C47.9296058,61.1469409 48.0005472,61.1746032 48.0769968,61.1746032 C48.1067219,61.1746032 48.1373018,61.1702123 48.1683564,61.16176 C48.3769072,61.1043498 48.5405378,60.8642809 48.5405378,60.6148814 L48.5405378,59.7690967 L48.9827109,59.1088248 L50.0336318,60.4643855 C50.1164442,60.5588983 50.2358196,60.5960008 50.3496868,60.5633989 C50.4440854,60.5371636 50.5247136,60.4797535 50.586728,60.395669 C50.6784675,60.2838124 50.7290857,60.1392442 50.7256668,59.9987374 C50.7231027,59.8894056 50.6870147,59.7913802 50.6304135,59.7300183 L49.5281147,58.3061801 Z" id="Fill-23" fill="#231F20"></path>
                        <path d="M54.3438663,55.2861362 C54.2669412,55.2134378 54.162277,55.1890643 54.0623098,55.2186079 C53.8641479,55.2743187 53.7142857,55.5002217 53.7142857,55.7442729 L53.7142857,59.2962572 C53.7142857,59.4246663 53.7554956,59.5340831 53.8300279,59.6055153 C53.8839995,59.6563725 53.9498467,59.6825397 54.0210999,59.6825397 C54.0497253,59.6825397 54.0790596,59.6787412 54.1091916,59.6701947 C54.3057583,59.6140618 54.4603175,59.3823557 54.4603175,59.1430525 L54.4603175,55.5910683 C54.4603175,55.46593 54.4191962,55.3579904 54.3438663,55.2861362" id="Fill-25" fill="#231F20"></path>
                        <path d="M61.0517362,53.0538123 C60.9731573,52.9756218 60.8644924,52.9502128 60.7591912,52.9809346 L58.555807,53.6271321 C58.3477273,53.6890377 58.1904762,53.9364291 58.1904762,54.2024154 C58.1904762,54.341472 58.2364462,54.4664382 58.3168003,54.5455526 C58.3945382,54.6227036 58.4981576,54.6501916 58.6050473,54.6179683 L59.288898,54.4175835 L59.288898,57.7686865 C59.288898,57.9071656 59.3323453,58.0264725 59.4117651,58.1045475 C59.4685735,58.1607938 59.540425,58.1904762 59.6165746,58.1904762 C59.6458197,58.1904762 59.6750649,58.1863184 59.70431,58.1774252 C59.9132307,58.116559 60.0703884,57.8685901 60.0703884,57.6021419 L60.0703884,54.1883249 L60.8076839,53.9717708 C61.0099707,53.9128681 61.1746032,53.6520791 61.1746032,53.3901353 C61.1746032,53.2516561 61.1312493,53.1318872 61.0517362,53.0538123" id="Fill-27" fill="#231F20"></path>
                        <path d="M67.8109279,54.9749813 C67.6879455,54.7952153 67.4603093,54.819489 67.315316,55.0266948 C67.1228645,55.3211451 66.8937555,55.5152173 66.6353532,55.6035172 C66.3608315,55.6960386 66.0994836,55.6315433 65.9003224,55.4226959 C65.7108165,55.2133793 65.6068174,54.877652 65.6068174,54.4780158 C65.6068174,54.0735717 65.7144168,53.6611536 65.9150508,53.2884881 C66.1228854,52.9289562 66.4010893,52.6694506 66.6784748,52.5752874 C66.9295947,52.4886292 67.1580491,52.5255674 67.3373269,52.6821151 C67.4873933,52.8052425 67.7062742,52.6979458 67.8256564,52.4372675 C67.9339104,52.1772929 67.9002805,51.86795 67.7457955,51.7299301 C67.4280704,51.4725352 67.0438219,51.408509 66.6346168,51.5491087 C65.6852054,51.8790901 64.9091804,53.2710157 64.9047619,54.6529739 L64.9047619,54.6540293 C64.907053,55.32865 65.0900129,55.9069969 65.4201754,56.2822422 C65.6617217,56.5572266 65.9581724,56.6984127 66.2803161,56.6984127 C66.4091081,56.6984127 66.5423186,56.6756635 66.6777384,56.6295786 C67.0826067,56.492145 67.4588365,56.1760008 67.7678064,55.7151527 C67.9090357,55.5003247 67.9310465,55.17949 67.8109279,54.9749813" id="Fill-29" fill="#231F20"></path>
                        <path d="M74.5011644,50.0661429 C74.4352263,49.9919001 74.3422923,49.9660477 74.2540904,49.9968717 C74.0806343,50.0556472 73.9495338,50.292296 73.9495338,50.5472846 L73.9495338,51.9594437 L73.0181771,52.2740916 L73.0181771,50.9223652 C73.0181771,50.7898993 72.9820275,50.6762151 72.9160894,50.6016409 C72.850927,50.5268457 72.7613287,50.5014352 72.6690929,50.5329221 C72.4955593,50.5911452 72.3650794,50.827794 72.3650794,51.0827826 L72.3650794,54.8024332 C72.3650794,54.9364458 72.401229,55.0514558 72.4664689,55.1256986 C72.5136341,55.1789501 72.5711942,55.2063492 72.6336415,55.2063492 C72.6579222,55.2063492 72.6835993,55.2023719 72.7092764,55.193423 C72.88281,55.1351999 73.0181771,54.8930271 73.0181771,54.6415739 L73.0181771,53.2300776 L73.9495338,52.9146564 L73.9495338,54.2666038 C73.9495338,54.4005059 73.9856058,54.5155159 74.0514664,54.5902006 C74.1160082,54.6649957 74.2021156,54.6914005 74.294429,54.6580355 C74.4678851,54.5997019 74.6031746,54.3571976 74.6031746,54.1060759 L74.6031746,50.3868672 C74.6031746,50.2549537 74.5671801,50.140938 74.5011644,50.0661429" id="Fill-31" fill="#231F20"></path>
                        <path d="M80.9415498,52.2626063 L79.7924683,52.6220868 L79.7924683,51.713431 L80.8073505,51.3947751 C80.9938231,51.3368377 81.1393751,51.0892055 81.1393751,50.8315069 C81.1393751,50.7019866 81.097692,50.5838747 81.024916,50.5078179 C80.95214,50.4300833 80.8536086,50.4049174 80.7633799,50.4356757 L79.7924683,50.7397913 L79.7924683,49.8370635 L80.9855204,49.4630427 C81.168943,49.406 81.3174603,49.1527754 81.3174603,48.8992153 C81.3174603,48.7665631 81.2780647,48.6516949 81.2052887,48.5754143 C81.1333599,48.4998049 81.0370312,48.4751982 80.9415498,48.503384 L79.411305,48.9829896 C79.2217824,49.0419337 79.0793651,49.2815128 79.0793651,49.5395469 L79.0793651,53.3053682 C79.0793651,53.4374611 79.120201,53.5564677 79.191452,53.6316298 C79.2429628,53.6860999 79.3059111,53.7142857 79.3741121,53.7142857 C79.3901246,53.7142857 79.4059675,53.7128317 79.422573,53.7096999 L79.4241827,53.7112658 L79.4514631,53.7027653 C79.4529881,53.7022061 79.4544284,53.7017587 79.4551909,53.7011995 L80.9861982,53.2221531 C81.168943,53.164663 81.3174603,52.9145702 81.3174603,52.6650366 C81.3174603,52.5318252 81.2757772,52.4113646 81.2030012,52.3347485 C81.1303099,52.2585797 81.034066,52.231848 80.9415498,52.2626063" id="Fill-33" fill="#231F20"></path>
                        <path d="M88.6535257,45.5898759 C88.5739061,45.5162999 88.4648783,45.4904876 88.3582144,45.5197195 C88.1560448,45.5754255 87.991983,45.8186565 87.991983,46.061336 L87.991983,48.3062317 L86.4980273,46.2269096 C86.4438443,46.149914 86.3643192,46.1031431 86.2755272,46.0966348 C86.1578944,46.0851627 86.0394105,46.143847 85.9413517,46.2512879 C85.8440493,46.3642441 85.7873132,46.5248539 85.7942161,46.6695791 L85.7942161,50.3267592 C85.7942161,50.4571443 85.8397941,50.5745129 85.9193192,50.6479786 C85.9768117,50.7022506 86.047921,50.7301587 86.1240419,50.7301587 C86.1536392,50.7301587 86.1841821,50.7256361 86.2146305,50.7171423 C86.415949,50.6615466 86.5800109,50.4153372 86.5800109,50.1692382 L86.5800109,47.9053693 L88.0477735,49.9502751 C88.0629976,49.9836986 88.0867322,50.0065326 88.0918385,50.0090697 C88.1721201,50.1044868 88.291455,50.1437568 88.4072911,50.1100023 C88.6121084,50.0537448 88.7777778,49.8070941 88.7777778,49.5604435 L88.7777778,45.9037046 C88.7777778,45.7778422 88.7321998,45.6634519 88.6535257,45.5898759" id="Fill-35" fill="#231F20"></path>
                        <g id="Group-39" fill="#231F20">
                            <path d="M91.5894291,54.7647592 L91.2704455,54.8487024 L57.6721744,63.6905517 L57.6426903,63.6984535 L57.54304,63.7246216 L57.5125285,63.732626 L57.4688673,63.7453509 C55.5072979,64.295805 53.7638291,65.2461697 52.2695886,66.5750998 L52.0771711,66.7461675 L51.825169,66.6925998 C50.9229744,66.5010081 49.9985897,66.4039295 49.0774925,66.4039295 C48.0131864,66.4039295 46.9456957,66.5335386 45.9049154,66.7892679 L45.8413242,66.8040452 L12.2740783,75.6378902 L11.9565329,75.7215255 L11.749322,75.4669251 C5.14446077,67.3518312 1.65331104,57.5026631 1.65331104,46.9840015 C1.65331104,44.0694884 1.93253727,41.1485103 2.48349027,38.3019317 L2.54574601,37.9799098 L2.86524328,37.9037657 L36.6061067,29.8667657 L36.6115515,29.8655343 L36.6309679,29.861019 L36.7702728,29.8276675 L36.811263,29.8167897 C38.7847493,29.3134382 40.5418815,28.4155124 42.0521482,27.1430234 L42.247134,26.9788312 L42.4955405,27.0365037 C43.471805,27.2628836 44.4763209,27.3777155 45.4813504,27.3777155 C46.4535056,27.3777155 47.4324411,27.270067 48.3908302,27.0579513 L48.4517504,27.0452264 L82.1915864,19.0086369 L82.5095427,18.9329033 L82.7107952,19.1901718 C88.9542444,27.1719622 92.2542094,36.7828465 92.2542094,46.9840015 C92.2542094,49.4739753 92.0486422,51.9824207 91.6430553,54.4396587 L91.5894291,54.7647592 Z M66.8291099,64.6736522 C67.5478247,63.450626 68.7063362,62.5762002 70.0913722,62.2116937 C70.510417,62.1014797 70.9396323,62.0410365 71.3676149,62.0318007 L71.4840105,62.0305692 C72.4175384,62.0305692 73.3428477,62.2765496 74.1598772,62.7419317 C75.4017045,63.4493945 76.289311,64.5915561 76.6593526,65.9580452 C77.0295996,67.3257657 76.8368739,68.7538269 76.1168236,69.9791107 C75.3979034,71.2023421 74.2391864,72.0766653 72.8543558,72.4411718 C72.397711,72.5612373 71.9293548,72.6221937 71.4622313,72.6221937 C70.5283952,72.6221937 69.6029832,72.3761107 68.7859537,71.910626 C67.5442291,71.203471 66.6566225,70.061412 66.286581,68.6947177 C65.9162313,67.3269972 66.1089569,65.898936 66.8291099,64.6736522 L66.8291099,64.6736522 Z M55.0735624,79.514364 C55.1766028,79.8915954 55.5276389,80.1550212 55.9271646,80.1550212 C56.0052411,80.1550212 56.0836258,80.1447592 56.160264,80.124543 C56.6132105,80.0041697 57.0817722,79.9430081 57.551875,79.9430081 C58.3555493,79.9430081 59.1631274,80.1255692 59.887287,80.4706806 C59.903005,80.4781718 59.9193395,80.4837133 59.9355711,80.4899731 L60.3233854,80.6369251 L60.2752039,81.0528443 C59.9483099,83.0822592 59.070463,84.9792941 57.7364848,86.5389142 L57.5082138,86.8057264 L57.177416,86.6872002 C53.6861635,85.4364666 51.0316651,82.5841413 50.076769,79.0572941 C49.1223864,75.5316784 49.9832826,71.7543356 52.3797176,68.952602 L52.6079886,68.6857897 L52.938581,68.8043159 C56.4300389,70.0548443 59.0840236,72.9052199 60.0379952,76.4288858 C60.1714444,76.9213596 60.2719165,77.4486216 60.3368433,77.9957919 L60.4288914,78.7715998 L59.6814116,78.5416282 C58.9832433,78.3268443 58.2611384,78.218067 57.5348214,78.218067 C56.9130859,78.218067 56.2947405,78.2984186 55.6970444,78.456864 C55.4665132,78.5181282 55.2749176,78.6639513 55.1574946,78.8674469 C55.0435646,79.0654011 55.0136695,79.2950648 55.0735624,79.514364 L55.0735624,79.514364 Z M30.9163843,74.1245517 C31.6348936,72.901936 32.7930968,72.0277155 34.1775165,71.6630037 C34.5988214,71.5522766 35.0275231,71.491936 35.4548892,71.4828028 L35.5710793,71.4814688 C36.5046072,71.4814688 37.4299165,71.7275517 38.2471515,72.1930365 C39.4888761,72.9002941 40.3765854,74.0423531 40.7465242,75.4090474 C41.1168739,76.7767679 40.9241482,78.204829 40.2039952,79.4302155 C39.4849722,80.6534469 38.326358,81.5278727 36.9415274,81.8922766 C36.4849854,82.0123421 36.0167318,82.0731959 35.5496083,82.0731959 C34.615875,82.0731959 33.6903602,81.8272155 32.8733307,81.3618334 C31.6314007,80.6543705 30.7437941,79.512209 30.3738553,78.1457199 C30.0035056,76.7779993 30.1962313,75.3499382 30.9163843,74.1245517 L30.9163843,74.1245517 Z M90.8264367,57.5217504 C89.6335099,62.8951434 87.4525045,67.9505168 84.3442378,72.5476915 C82.7620586,74.845971 80.9601351,77.0094076 78.9860323,78.9813552 C70.429875,87.5282745 59.0540258,92.23515 46.9538116,92.23515 C43.6296017,92.23515 40.3120695,91.8750561 37.0935711,91.1648225 C36.9427602,91.1310605 36.7940039,91.0970932 36.6453504,91.0620998 L36.504299,91.0288509 L36.4314619,91.0115081 C27.6700455,88.907591 19.853663,84.3359688 13.8256433,77.7905517 L13.2537329,77.169495 L14.0706597,76.9544033 L28.4781373,73.1628989 L29.5256979,72.8872614 L29.0696695,73.8688225 C28.3834181,75.3457308 28.2391821,77.0220299 28.6634662,78.5888334 C29.4940564,81.6573793 32.3288498,83.8002919 35.5572105,83.8002919 C35.6088848,83.8002919 35.6600455,83.7997788 35.7118225,83.79865 C36.2793154,83.7864382 36.8474247,83.7064972 37.4001242,83.5609819 C39.2559821,83.0726129 40.8035405,81.8963814 41.7577176,80.2490212 C42.6936083,78.6332679 42.9419121,76.7569622 42.457016,74.9659338 C42.0252323,73.3707046 41.078863,72.0233028 39.7204345,71.0692439 L38.8246094,70.4400801 L39.8835733,70.161364 L46.1407886,68.5146194 C47.1160258,68.2590954 48.0963996,68.132257 49.0756433,68.132257 C49.3125438,68.132257 49.5525263,68.1397483 49.7891187,68.1545255 L50.6834028,68.2106587 L50.1774466,68.9494207 C48.0511974,72.0526522 47.3911427,75.89834 48.3663799,79.5005103 C49.5532455,83.8849535 53.0505591,87.3731129 57.4934203,88.6036303 C57.5928651,88.6339033 57.6827558,88.6472439 57.7736739,88.6472439 C58.0146837,88.6472439 58.2397701,88.5548858 58.4077373,88.3873072 C61.6598291,85.1382526 62.9399755,80.3863269 61.7483843,75.9857723 C60.7729416,72.3823705 58.2553854,69.3709841 54.8410793,67.723829 L54.030111,67.3325386 L54.7839602,66.8401675 C55.797311,66.1784731 56.9108258,65.6834338 58.0933766,65.3691085 L64.38624,63.7130255 L65.4345198,63.4371828 L64.9776695,64.4191544 C64.2831996,65.9116609 64.1444083,67.5433203 64.5761919,69.1379338 C65.0665329,70.9495889 66.244769,72.4645692 67.8936214,73.4038509 C68.9820695,74.0238814 70.2138291,74.3515474 71.4557591,74.3515474 C71.5073307,74.3515474 71.5587996,74.3510343 71.6103711,74.3499055 C72.1815624,74.337591 72.7542946,74.256829 73.3127471,74.1097745 C75.1687078,73.6214055 76.7162662,72.4452766 77.670546,70.7979164 C78.606334,69.1821631 78.8547405,67.30596 78.3697416,65.514829 C77.9378553,63.9197024 76.9914859,62.572198 75.6330575,61.6181391 L74.7372323,60.9890779 L75.7961963,60.7103618 L90.1997701,56.9198836 L91.0072455,56.7073574 L90.8264367,57.5217504 Z M27.5162553,28.7132133 C26.7746313,29.9046325 25.603381,30.7430386 24.2181395,31.0739884 C23.7930334,31.1747614 23.3658728,31.22484 22.9409722,31.22484 C21.9705635,31.22484 21.0148455,30.9621325 20.1771668,30.4650408 C18.9551668,29.7400299 18.0951952,28.5926347 17.7557679,27.2342526 C17.4158269,25.8738181 17.6387558,24.4659731 18.3832564,23.269936 C19.1254968,22.0772854 20.2980826,21.2384688 21.6848651,20.9082373 C22.1037045,20.8084906 22.5322007,20.7578989 22.9585395,20.7578989 C23.9284345,20.7578989 24.8840498,21.0208116 25.7222422,21.5181085 C26.9441395,22.2429142 27.804111,23.3903094 28.1436411,24.7486915 C28.4835821,26.1092286 28.2607558,27.5171762 27.5162553,28.7132133 L27.5162553,28.7132133 Z M39.5339755,14.3153072 C39.4379209,13.9344841 39.087193,13.6684928 38.6809897,13.6684928 C38.6094881,13.6684928 38.5375755,13.6770103 38.4673067,13.6939426 C38.0513438,13.7937919 37.6231558,13.8445889 37.1946597,13.8445889 C36.3542072,13.8445889 35.5142684,13.6470452 34.7655558,13.2734055 C34.7427493,13.2671456 34.7207646,13.2593465 34.6987799,13.2505212 L34.3130203,13.095257 L34.3883231,12.6866238 C34.7571318,10.6872766 35.6727843,8.83087926 37.0359384,7.31815655 L37.2691405,7.05934869 L37.5951099,7.1830059 C41.0446531,8.49171987 43.6267252,11.364364 44.5019012,14.8673007 C45.377899,18.3727002 44.4373854,22.0872395 41.9860914,24.8037985 L41.7524783,25.0625037 L41.4266116,24.9385386 C40.8106291,24.7040517 40.2096455,24.4139448 39.6403034,24.0760168 C37.0589504,22.5443094 35.2426444,20.121757 34.5259843,17.2545517 C34.4040411,16.7667985 34.3152804,16.2452832 34.2621679,15.7045779 L34.1859405,14.9281544 L34.9278728,15.1717745 C35.6666203,15.4142657 36.4294072,15.5372046 37.1949679,15.5372046 C37.766981,15.5372046 38.3381722,15.4695779 38.8929263,15.3362745 C39.124793,15.2805517 39.3188542,15.1402701 39.4392564,14.9412897 C39.5543165,14.75134 39.5879099,14.5289622 39.5339755,14.3153072 L39.5339755,14.3153072 Z M63.4680192,20.1496697 C62.7257788,21.3423203 61.553193,22.1810343 60.1664105,22.5113683 C59.7477766,22.6111151 59.3193832,22.6616041 58.8931471,22.6616041 C57.9231493,22.6616041 56.9673285,22.3987941 56.1291362,21.9013945 C54.9071362,21.1765889 54.0471646,20.0291937 53.7077373,18.6706063 C53.3676936,17.3102745 53.5905198,15.9023269 54.3350203,14.706495 C55.0773635,13.5138443 56.2499493,12.6751303 57.6367318,12.344591 C58.0555711,12.2448443 58.4840673,12.1943552 58.9103034,12.1943552 C59.8803012,12.1943552 60.8360192,12.4572679 61.6741089,12.9545648 C62.8960061,13.6795758 63.7559777,14.826971 64.0955078,16.1853531 C64.4354487,17.5457876 64.2126225,18.9536325 63.4680192,20.1496697 L63.4680192,20.1496697 Z M3.47208262,35.2532941 C5.38680612,27.4981915 9.45849574,20.396471 15.2470466,14.7158334 C21.0511099,9.02000808 28.3254772,5.00735742 36.2835274,3.11186179 C39.7253657,2.29202991 43.2668542,1.87641856 46.809781,1.87641856 C59.7735624,1.87641856 72.0746181,7.34647969 80.5589657,16.8840932 L81.1240957,17.5194142 L80.2963821,17.7165474 L65.8778094,21.1509338 L64.8212083,21.4026609 L65.3035362,20.4304382 C66.0257438,18.974567 66.1987449,17.3697941 65.8038422,15.7894448 C65.0261591,12.6766697 62.1877701,10.5026631 58.9014684,10.5026631 C58.3363384,10.5026631 57.7689482,10.5695714 57.2151187,10.7015408 C55.3473438,11.1466041 53.7769788,12.2820954 52.7933176,13.8990801 C51.8400651,15.4662941 51.5580651,17.3014491 51.9993001,19.0666172 C52.394511,20.6480954 53.3066706,21.9965234 54.637464,22.9660779 L55.5292826,23.6158683 L54.4555252,23.8717002 L48.1908105,25.4531784 C48.1908105,25.4531784 46.7522509,25.7909011 45.4862815,25.7733531 C45.1777766,25.769043 44.8655733,25.716091 44.5585067,25.6911544 L43.658675,25.5958203 L44.1869242,24.8532614 C44.3616717,24.6112832 44.529228,24.3559644 44.6850728,24.1054688 C46.4941875,21.1992679 47.0357919,17.7769906 46.2103384,14.4741631 C45.123534,10.1245081 41.718063,6.60833341 37.3229722,5.30002991 C37.2174662,5.26554956 37.1217198,5.24954083 37.0242269,5.24954083 C36.792052,5.24954083 36.5730269,5.33563908 36.4074225,5.4925452 C33.1026291,8.6277941 31.7270444,13.2863356 32.8176498,17.65046 C33.6434116,20.9555452 35.739252,23.7492745 38.7187952,25.5172133 C38.9767558,25.6703225 39.2420105,25.8158378 39.5074706,25.9501675 L40.3177198,26.3601347 L39.5447624,26.8365998 C38.5269941,27.4641216 37.4141985,27.9265277 36.2375034,28.2109906 L29.9259427,29.7143749 L28.8693416,29.9659993 L29.3516695,28.9938793 C30.0739799,27.5378028 30.246981,25.9330299 29.8519755,24.3529884 C29.4031384,22.556829 28.2637351,21.0381544 26.6436477,20.076912 C25.5272564,19.4144993 24.2546094,19.0644622 22.9633679,19.0643596 C22.3947449,19.0643596 21.8227318,19.1319862 21.263252,19.2651871 C19.4189001,19.7045037 17.860863,20.8177264 16.8760717,22.3997177 C15.8933351,23.9784251 15.5991099,25.8359513 16.0474334,27.6300583 C16.4350422,29.181674 17.3753504,30.5658138 18.6947405,31.5274666 L19.5863537,32.177257 L18.512699,32.4329862 L4.08446951,35.8698356 L3.27206295,36.0632745 L3.47208262,35.2532941 Z M80.1551252,13.8190365 C71.2867646,4.9602548 59.4956717,0.0815932314 46.9538116,0.0815932314 C37.8227646,0.0815932314 28.9909766,2.68578319 21.4131384,7.61277882 L21.3563274,7.64972205 L21.3063996,7.68225262 L21.1741832,7.76835087 C21.0674444,7.83782467 20.9606028,7.90740109 20.8545832,7.97851681 C15.447169,11.5629338 10.7785023,16.327995 7.35114929,21.7598814 C2.54132852,29.263257 4.10928962e-05,37.9845277 4.10928962e-05,46.9840015 C4.10928962e-05,58.0894448 3.74124109,68.4468902 10.819287,76.9365474 L10.8612017,76.9867286 L10.8890422,77.0459404 C10.9203755,77.1126434 10.9600302,77.1750365 11.0067733,77.2313749 C19.8841744,87.8879579 33.0270181,94.0000103 47.0652761,94.0000103 C47.4039843,94.0000103 47.742487,93.9963159 48.0818116,93.9891325 C51.7803777,93.9093967 55.4683624,93.3920889 59.0429307,92.4514731 C73.6303952,88.6124557 85.4779908,77.975781 90.735416,63.9983094 C92.841016,58.5847919 93.9074793,52.8621828 93.9074793,46.9840015 C93.9074793,34.455936 89.0234859,22.6777155 80.1551252,13.8190365 L80.1551252,13.8190365 Z" id="Fill-37"></path>
                        </g>
                        <path d="M17.5808568,57.4444444 C16.9358106,57.4444444 16.4126984,56.9470057 16.4126984,56.333491 L16.4126984,45.917651 C16.4126984,44.0108364 17.9335408,42.1440093 19.8747009,41.667638 L25.0498016,40.3973488 C26.0804347,40.1449477 27.1125731,40.324942 27.8831017,40.8927422 C28.6533078,41.4603378 29.0952381,42.3661386 29.0952381,43.3780951 L29.0952381,53.7940375 C29.0952381,54.4074499 28.5721259,54.9049909 27.9271873,54.9049909 C27.282141,54.9049909 26.7590289,54.4074499 26.7590289,53.7940375 L26.7590289,43.3780951 C26.7590289,43.0539009 26.650213,42.7949546 26.4522583,42.6493228 C26.2541961,42.5030774 25.9631242,42.4677945 25.6338808,42.5489964 L20.4584575,43.819388 C19.547823,44.0427445 18.7490151,45.0232021 18.7490151,45.917651 L18.7490151,56.333491 C18.7490151,56.9470057 18.225903,57.4444444 17.5808568,57.4444444" id="Fill-40" fill="#231F20"></path>
                        <path d="M7.88244408,59.6825397 C7.23739787,59.6825397 6.71428571,59.1850021 6.71428571,58.571594 L6.71428571,48.1557237 C6.71428571,46.2491269 8.23469802,44.3825172 10.1759656,43.9058425 L15.3513889,42.635562 C16.3816994,42.3828559 17.414483,42.563258 18.1846891,43.1308497 C18.9548951,43.6984414 19.3968254,44.6043382 19.3968254,45.6162877 L19.3968254,56.0320557 C19.3968254,56.6455661 18.8737132,57.1431037 18.228667,57.1431037 C17.5837283,57.1431037 17.0605087,56.6455661 17.0605087,56.0320557 L17.0605087,45.6162877 C17.0605087,45.2919935 16.9516927,45.0331512 16.7538456,44.8875204 C16.5556759,44.7414806 16.2647115,44.7057888 15.9354681,44.7871948 L10.7600448,46.0574752 C9.8494103,46.2810348 9.05060245,47.2615878 9.05060245,48.1557237 L9.05060245,58.571594 C9.05060245,59.1850021 8.52749029,59.6825397 7.88244408,59.6825397" id="Fill-42" fill="#231F20"></path>
                        <path d="M43.1227146,38.0051643 C43.0190599,38.0051643 42.908201,38.0191173 42.7926109,38.0472257 L37.6167576,39.3033046 C36.7062306,39.5240258 35.9076378,40.4934603 35.9076378,41.3776598 L35.9076378,49.1648839 C35.9076378,49.4853999 36.0165612,49.7410038 36.2143009,49.8850843 C36.412148,50.0297715 36.7032199,50.0640475 37.0331085,49.9846768 L42.2085317,48.7288002 C43.1191662,48.5077756 43.9176515,47.5380378 43.9176515,46.6540405 L43.9176515,38.8670186 C43.9176515,38.5464015 43.8088356,38.2904943 43.6109884,38.1464137 C43.4826029,38.0528878 43.3150779,38.0051643 43.1227146,38.0051643 M36.7070908,52.2222222 C35.9973141,52.2222222 35.3254941,52.0165662 34.7831348,51.6216339 C34.0130363,51.060377 33.5714286,50.1652578 33.5714286,49.1648839 L33.5714286,41.3776598 C33.5714286,39.492682 35.0918409,37.6470357 37.0327859,37.1759682 L42.2085317,35.9199904 C43.2384122,35.6701497 44.2709807,35.8486073 45.0415093,36.409662 C45.8119304,36.9709188 46.2539683,37.8664425 46.2539683,38.8670186 L46.2539683,46.6540405 C46.2539683,48.5390183 44.7334484,50.3845635 42.7926109,50.8557321 L37.6167576,52.1117099 C37.3114923,52.1858229 37.0056894,52.2222222 36.7070908,52.2222222" id="Fill-44" fill="#231F20"></path>
                        <path d="M53.1195741,47.7460317 C52.409905,47.7460317 51.7381925,47.5406781 51.1961558,47.1459462 C50.4260573,46.5845856 49.984127,45.6890578 49.984127,44.6885782 L49.984127,36.9015204 C49.984127,35.0165339 51.5045393,33.1708791 53.4454843,32.6998094 L58.6209076,31.4439269 C59.6511106,31.1938829 60.6836791,31.3723413 61.4545303,31.9336008 C62.2247364,32.4948602 62.6666667,33.3904892 62.6666667,34.3908677 L62.6666667,35.1441343 C62.6666667,35.750893 62.1435545,36.2425891 61.4985083,36.2425891 C60.8534621,36.2425891 60.3304575,35.750893 60.3304575,35.1441343 L60.3304575,34.3908677 C60.3304575,34.0702491 60.221534,33.8143406 60.0236869,33.6703606 C59.8258397,33.5262794 59.5341227,33.490891 59.2049868,33.571172 L54.0295635,34.8271556 C53.1188215,35.047979 52.3203362,36.0173169 52.3203362,36.9015204 L52.3203362,44.6885782 C52.3203362,45.0091968 52.4291521,45.2651052 52.6271068,45.4090853 C52.8252765,45.5534698 53.1163484,45.5884538 53.4454843,45.5082738 L58.6209076,44.2522902 C59.5315421,44.0313657 60.3304575,43.0619268 60.3304575,42.1779255 L60.3304575,40.9499492 C60.3304575,40.3432916 60.8534621,39.8514944 61.4985083,39.8514944 C62.1435545,39.8514944 62.6666667,40.3432916 62.6666667,40.9499492 L62.6666667,42.1779255 C62.6666667,44.0629119 61.1461468,45.9083646 59.2049868,46.3795354 L54.0295635,47.6353167 C53.7240832,47.7096323 53.4183879,47.7460317 53.1195741,47.7460317" id="Fill-46" fill="#231F20"></path>
                        <path d="M76.4682025,41.7777778 C75.8502463,41.7777778 75.3492063,41.2888552 75.3492063,40.6855189 L75.3492063,27.9494018 C75.3492063,27.346166 75.8502463,26.8571429 76.4682025,26.8571429 C77.0861586,26.8571429 77.5873016,27.346166 77.5873016,27.9494018 L77.5873016,40.6855189 C77.5873016,41.2888552 77.0861586,41.7777778 76.4682025,41.7777778" id="Fill-48" fill="#231F20"></path>
                        <path d="M83.1824882,39.5396825 C82.564635,39.5396825 82.0634921,39.0507599 82.0634921,38.4475242 L82.0634921,25.7113065 C82.0634921,25.1080708 82.564635,24.6190476 83.1824882,24.6190476 C83.8004443,24.6190476 84.3015873,25.1080708 84.3015873,25.7113065 L84.3015873,38.4475242 C84.3015873,39.0507599 83.8004443,39.5396825 83.1824882,39.5396825" id="Fill-50" fill="#231F20"></path>
                        <path d="M66.7697898,44.015873 C66.1519366,44.015873 65.6507937,43.5268499 65.6507937,42.9236141 L65.6507937,30.187497 C65.6507937,29.5842612 66.1519366,29.0952381 66.7697898,29.0952381 C67.3877459,29.0952381 67.8888889,29.5842612 67.8888889,30.187497 L67.8888889,42.9236141 C67.8888889,43.5268499 67.3877459,44.015873 66.7697898,44.015873" id="Fill-52" fill="#231F20"></path>
                        <path d="M66.8184689,38.7936508 C66.2982795,38.7936508 65.8241093,38.4289445 65.688202,37.8794177 C65.5268121,37.227836 65.9026001,36.5634694 66.5270854,36.3951348 L76.8730274,33.61038 C77.4997707,33.4421575 78.1349007,33.8344523 78.295968,34.4856976 C78.4572504,35.1371671 78.0814624,35.8016459 77.4569771,35.9698684 L67.1111427,38.7547353 C67.013083,38.7810902 66.9149158,38.7936508 66.8184689,38.7936508" id="Fill-54" fill="#231F20"></path>
                    </g>
                </g>
            </g>
        </g>
    </g>
</svg>