<?xml version="1.0" encoding="UTF-8"?>
<svg width="24px" height="24px" viewBox="0 0 24 24" version="1.1" xmlns="http://www.w3.org/2000/svg" xmlns:xlink="http://www.w3.org/1999/xlink">
    <!-- Generator: Sketch 47.1 (45422) - http://www.bohemiancoding.com/sketch -->
    <title>icon/social/fb</title>
    <desc>Created with Sketch.</desc>
    <defs>
        <polygon id="path-1" points="11.9951955 24 23.990382 24 23.990382 0.00943820225 11.9951955 0.00943820225 8.98876405e-06 0.00943820225 8.98876405e-06 24 11.9951955 24"></polygon>
    </defs>
    <g id="Symbols" stroke="none" stroke-width="1" fill="none" fill-rule="evenodd">
        <g id="icon/social/fb">
            <g id="Group">
                <g id="Page-1">
                    <g id="Group-3">
                        <mask id="mask-2" fill="white">
                            <use xlink:href="#path-1"></use>
                        </mask>
                        <g id="Clip-2"></g>
                        <path d="M22.6663461,24 C23.3974921,24 23.990391,23.4071011 23.990391,22.6759551 L23.990391,1.33357303 C23.990391,0.602157303 23.3974921,0.00943820225 22.6663461,0.00943820225 L1.32405393,0.00943820225 C0.592638202,0.00943820225 8.98876405e-06,0.602157303 8.98876405e-06,1.33357303 L8.98876405e-06,22.6759551 C8.98876405e-06,23.4071011 0.592638202,24 1.32405393,24 L22.6663461,24 Z" id="Fill-1" fill="#9D9C9C" mask="url(#mask-2)"></path>
                    </g>
                    <path d="M16.6044488,24 L16.6044488,14.7486227 L19.694019,14.7486227 L20.1565685,11.1431321 L16.6044488,11.1431321 L16.6044488,8.84118566 C16.6044488,7.79731199 16.8928075,7.08597054 18.3821561,7.08597054 L20.2816901,7.08507544 L20.2816901,3.86036332 C19.9530788,3.81650309 18.8255589,3.71830986 17.513785,3.71830986 C14.7750898,3.71830986 12.9002239,5.39851502 12.9002239,8.48421703 L12.9002239,11.1431321 L9.8028169,11.1431321 L9.8028169,14.7486227 L12.9002239,14.7486227 L12.9002239,24 L16.6044488,24 Z" id="Fill-4" fill="#FEFEFE"></path>
                </g>
            </g>
        </g>
    </g>
</svg>