<?xml version="1.0" encoding="UTF-8"?>
<svg width="24px" height="24px" viewBox="0 0 24 24" version="1.1" xmlns="http://www.w3.org/2000/svg" xmlns:xlink="http://www.w3.org/1999/xlink">
    <!-- Generator: Sketch 47.1 (45422) - http://www.bohemiancoding.com/sketch -->
    <title>icon/social/in</title>
    <desc>Created with Sketch.</desc>
    <defs></defs>
    <g id="Symbols" stroke="none" stroke-width="1" fill="none" fill-rule="evenodd">
        <g id="icon/social/in" fill="#9D9C9C">
            <g id="Page-1">
                <g id="Group-3" transform="translate(0.000000, 0.039968)">
                    <path d="M11.9962143,0.00756118812 C8.7382619,0.00756118812 8.32969048,0.0213433663 7.05021429,0.0796087129 C5.77330952,0.137731485 4.90130952,0.340139406 4.13821429,0.636123564 C3.34940476,0.942040396 2.68035714,1.35141861 2.01345238,2.01700277 C1.3465,2.68263446 0.936357143,3.3503097 0.629785714,4.13755723 C0.333214286,4.89914139 0.130452381,5.76941465 0.0721666667,7.04379089 C0.0137857143,8.32078099 2.38095238e-05,8.72844832 2.38095238e-05,11.9799968 C2.38095238e-05,15.2315453 0.0137857143,15.6392602 0.0721666667,16.9162503 C0.130452381,18.190579 0.333214286,19.0608998 0.629785714,19.8224364 C0.936357143,20.609684 1.3465,21.2774067 2.01345238,21.9429909 C2.68035714,22.6086226 3.34940476,23.0179533 4.13821429,23.3239651 C4.90130952,23.6199018 5.77330952,23.8223097 7.05021429,23.88048 C8.32969048,23.9386978 8.7382619,23.95248 11.9962143,23.95248 C15.2542143,23.95248 15.6626905,23.9386978 16.9422143,23.88048 C18.219119,23.8223097 19.091119,23.6199018 19.8542143,23.3239651 C20.6430714,23.0179533 21.3120714,22.6086226 21.9789762,21.9429909 C22.6459286,21.2774067 23.0560714,20.6097315 23.3626429,19.8224364 C23.6592143,19.0608998 23.8620238,18.190579 23.9202619,16.9162503 C23.9786429,15.6392602 23.9924524,15.2315453 23.9924524,11.9799968 C23.9924524,8.72849584 23.9786429,8.32078099 23.9202619,7.04379089 C23.8620238,5.76941465 23.6592143,4.89914139 23.3626429,4.13755723 C23.0560714,3.3503097 22.6459286,2.68263446 21.9789762,2.01700277 C21.3120714,1.35141861 20.6430714,0.942040396 19.8542143,0.636123564 C19.091119,0.340139406 18.219119,0.137731485 16.9422143,0.0796087129 C15.6626905,0.0213433663 15.2542143,0.00756118812 11.9962143,0.00756118812 M11.9962143,2.16475723 C15.1993571,2.16475723 15.5787381,2.17692356 16.8436905,2.23452356 C18.0133095,2.28779881 18.6485,2.4828404 19.0712143,2.64680079 C19.6311667,2.86398891 20.0308333,3.12342653 20.4505952,3.54235723 C20.8703571,3.96133545 21.1303095,4.36016317 21.3479762,4.91900673 C21.5122143,5.34088396 21.7076429,5.97481663 21.7610238,7.1421196 C21.8186905,8.40456713 21.8309286,8.78324436 21.8309286,11.9799968 C21.8309286,15.1767968 21.8186905,15.5554741 21.7610238,16.8178741 C21.7076429,17.9852246 21.5122143,18.6191572 21.3479762,19.0410345 C21.1303095,19.5998305 20.8703571,19.9987057 20.4505952,20.4176364 C20.0308333,20.8366147 19.6311667,21.0960523 19.0712143,21.3132404 C18.6485,21.4771533 18.0133095,21.6722424 16.8436905,21.7254701 C15.5789286,21.7830701 15.1995952,21.795284 11.9962143,21.795284 C8.79283333,21.795284 8.4135,21.7830701 7.1487381,21.7254701 C5.97911905,21.6722424 5.34388095,21.4771533 4.92116667,21.3132404 C4.3612619,21.0960523 3.96159524,20.8366147 3.54183333,20.4176364 C3.12207143,19.9987057 2.86207143,19.5998305 2.64445238,19.0410345 C2.48021429,18.6191572 2.28478571,17.9852246 2.23140476,16.8179216 C2.17369048,15.5554741 2.1615,15.1767968 2.1615,11.9799968 C2.1615,8.78324436 2.17369048,8.40456713 2.23140476,7.1421196 C2.28478571,5.97481663 2.48021429,5.34088396 2.64445238,4.91900673 C2.86207143,4.36016317 3.12207143,3.96133545 3.54183333,3.54240475 C3.96159524,3.12342653 4.3612619,2.86398891 4.92116667,2.64680079 C5.34388095,2.4828404 5.97911905,2.28779881 7.14869048,2.23452356 C8.41369048,2.17692356 8.79307143,2.16475723 11.9962143,2.16475723" id="Fill-1"></path>
                </g>
                <path d="M11.9962143,16.0108087 C9.78778571,16.0108087 7.99745238,14.2240206 7.99745238,12.0199651 C7.99745238,9.8159097 9.78778571,8.02916911 11.9962143,8.02916911 C14.2046429,8.02916911 15.9949762,9.8159097 15.9949762,12.0199651 C15.9949762,14.2240206 14.2046429,16.0108087 11.9962143,16.0108087 M11.9962143,5.87197307 C8.59402381,5.87197307 5.83597619,8.62451168 5.83597619,12.0199651 C5.83597619,15.4154661 8.59402381,18.1680048 11.9962143,18.1680048 C15.3984048,18.1680048 18.1564048,15.4154661 18.1564048,12.0199651 C18.1564048,8.62451168 15.3984048,5.87197307 11.9962143,5.87197307" id="Fill-4"></path>
                <path d="M19.8393619,5.62906455 C19.8393619,6.42253782 19.1948857,7.06573782 18.3998381,7.06573782 C17.6047905,7.06573782 16.9602667,6.42253782 16.9602667,5.62906455 C16.9602667,4.83559129 17.6047905,4.19239129 18.3998381,4.19239129 C19.1948857,4.19239129 19.8393619,4.83559129 19.8393619,5.62906455" id="Fill-6"></path>
            </g>
        </g>
    </g>
</svg>